<svg width="20" height="20" viewBox="0 0 20 20" fill="none" xmlns="http://www.w3.org/2000/svg">
<mask id="path-1-inside-1_1_14" fill="white">
<path d="M3.88889 12.2972H11.6667V11.1261H3.88889V12.2972ZM3.88889 8.78374H16.1111V7.61258H3.88889V8.78374ZM3.88889 5.27025H16.1111V4.09908H3.88889V5.27025ZM0 20V1.8926C0 1.35309 0.171482 0.902969 0.514445 0.54225C0.857408 0.181531 1.28407 0.000780777 1.79444 0H18.2056C18.7167 0 19.1433 0.18075 19.4856 0.54225C19.8278 0.90375 19.9993 1.35387 20 1.8926V14.5049C20 15.0436 19.8285 15.4937 19.4856 15.8552C19.1426 16.2167 18.7159 16.3971 18.2056 16.3963H3.41889L0 20ZM2.94444 15.2252H10.575H18.2056C18.3759 15.2252 18.5326 15.1502 18.6756 15.0003C18.8185 14.8504 18.8896 14.6852 18.8889 14.5049V1.89143C18.8889 1.71185 18.8178 1.54672 18.6756 1.39603C18.5333 1.24534 18.3767 1.17039 18.2056 1.17117H1.79444C1.62407 1.17117 1.46741 1.24612 1.32444 1.39603C1.18148 1.54594 1.11037 1.71107 1.11111 1.89143V17.1517L2.94444 15.2252Z"/>
</mask>
<path d="M3.88889 12.2972H11.6667V11.1261H3.88889V12.2972ZM3.88889 8.78374H16.1111V7.61258H3.88889V8.78374ZM3.88889 5.27025H16.1111V4.09908H3.88889V5.27025ZM0 20V1.8926C0 1.35309 0.171482 0.902969 0.514445 0.54225C0.857408 0.181531 1.28407 0.000780777 1.79444 0H18.2056C18.7167 0 19.1433 0.18075 19.4856 0.54225C19.8278 0.90375 19.9993 1.35387 20 1.8926V14.5049C20 15.0436 19.8285 15.4937 19.4856 15.8552C19.1426 16.2167 18.7159 16.3971 18.2056 16.3963H3.41889L0 20ZM2.94444 15.2252H10.575H18.2056C18.3759 15.2252 18.5326 15.1502 18.6756 15.0003C18.8185 14.8504 18.8896 14.6852 18.8889 14.5049V1.89143C18.8889 1.71185 18.8178 1.54672 18.6756 1.39603C18.5333 1.24534 18.3767 1.17039 18.2056 1.17117H1.79444C1.62407 1.17117 1.46741 1.24612 1.32444 1.39603C1.18148 1.54594 1.11037 1.71107 1.11111 1.89143V17.1517L2.94444 15.2252Z" fill="white"/>
<path d="M2.61111 15.2252V1.17117H-0.388889V15.2252H2.61111ZM3.88889 12.2972H0.888889V15.2972H3.88889V12.2972ZM11.6667 12.2972V15.2972H14.6667V12.2972H11.6667ZM11.6667 11.1261H14.6667V8.12608H11.6667V11.1261ZM3.88889 11.1261V8.12608H0.888889V11.1261H3.88889ZM3.88889 8.78374H0.888889V11.7837H3.88889V8.78374ZM16.1111 8.78374V11.7837H19.1111V8.78374H16.1111ZM16.1111 7.61258H19.1111V4.61258H16.1111V7.61258ZM3.88889 7.61258V4.61258H0.888889V7.61258H3.88889ZM3.88889 5.27025H0.888889V8.27025H3.88889V5.27025ZM16.1111 5.27025V8.27025H19.1111V5.27025H16.1111ZM16.1111 4.09908H19.1111V1.09908H16.1111V4.09908ZM3.88889 4.09908V1.09908H0.888889V4.09908H3.88889ZM0 20H-3V27.5209L2.17639 22.0648L0 20ZM1.79444 0L1.79444 -3L1.78985 -3L1.79444 0ZM20 1.8926L23 1.8926L23 1.88848L20 1.8926ZM18.2056 16.3963L18.2101 13.3963H18.2056V16.3963ZM3.41889 16.3963V13.3963H2.12976L1.2425 14.3315L3.41889 16.3963ZM2.94444 15.2252V12.2252H1.65801L0.771189 13.1571L2.94444 15.2252ZM18.8889 14.5049L15.8889 14.5049L15.8889 14.5172L18.8889 14.5049ZM18.2056 1.17117L18.2056 4.1712L18.2192 4.17113L18.2056 1.17117ZM1.11111 1.89143L4.11114 1.89143L4.11109 1.87911L1.11111 1.89143ZM1.11111 17.1517H-1.88889V24.6562L3.28437 19.2198L1.11111 17.1517ZM3.88889 15.2972H11.6667V9.29724H3.88889V15.2972ZM14.6667 12.2972V11.1261H8.66667V12.2972H14.6667ZM11.6667 8.12608H3.88889V14.1261H11.6667V8.12608ZM0.888889 11.1261V12.2972H6.88889V11.1261H0.888889ZM3.88889 11.7837H16.1111V5.78374H3.88889V11.7837ZM19.1111 8.78374V7.61258H13.1111V8.78374H19.1111ZM16.1111 4.61258H3.88889V10.6126H16.1111V4.61258ZM0.888889 7.61258V8.78374H6.88889V7.61258H0.888889ZM3.88889 8.27025H16.1111V2.27025H3.88889V8.27025ZM19.1111 5.27025V4.09908H13.1111V5.27025H19.1111ZM16.1111 1.09908H3.88889V7.09908H16.1111V1.09908ZM0.888889 4.09908V5.27025H6.88889V4.09908H0.888889ZM3 20V1.8926H-3V20H3ZM3 1.8926C3 1.94426 2.99093 2.06388 2.93206 2.21841C2.87155 2.37723 2.78167 2.5115 2.6886 2.60938L-1.65971 -1.52488C-2.57966 -0.55731 -3 0.654334 -3 1.8926H3ZM2.6886 2.60938C2.59794 2.70474 2.45478 2.81678 2.26189 2.8985C2.07064 2.97952 1.90356 2.99984 1.79903 3L1.78985 -3C0.482665 -2.998 -0.735528 -2.49692 -1.65971 -1.52488L2.6886 2.60938ZM1.79444 3H18.2056V-3H1.79444V3ZM18.2056 3C18.1007 3 17.932 2.97982 17.7387 2.89791C17.5436 2.81526 17.3987 2.70164 17.3069 2.60469L21.6642 -1.52019C20.7385 -2.49804 19.5159 -3 18.2056 -3V3ZM17.3069 2.60469C17.2156 2.50818 17.1271 2.37574 17.0674 2.21899C17.0092 2.06639 17.0001 1.94812 17 1.89673L23 1.88848C22.9983 0.652866 22.5784 -0.554457 21.6642 -1.52019L17.3069 2.60469ZM17 1.8926V14.5049H23V1.8926H17ZM17 14.5049C17 14.4523 17.0093 14.3326 17.0679 14.1785C17.1282 14.0203 17.2174 13.8871 17.3092 13.7905L21.6619 17.92C22.5789 16.9535 23 15.7437 23 14.5049H17ZM17.3092 13.7905C17.4003 13.6944 17.5448 13.581 17.7403 13.4984C17.9341 13.4164 18.1037 13.3962 18.2101 13.3963L18.201 19.3963C19.5134 19.3983 20.7361 18.8959 21.6619 17.92L17.3092 13.7905ZM18.2056 13.3963H3.41889V19.3963H18.2056V13.3963ZM1.2425 14.3315L-2.17639 17.9352L2.17639 22.0648L5.59528 18.4611L1.2425 14.3315ZM18.2056 18.2252C19.3688 18.2252 20.2687 17.6766 20.8466 17.0707L16.5045 12.9299C16.6369 12.791 16.8496 12.6093 17.1561 12.4627C17.4739 12.3107 17.8337 12.2252 18.2056 12.2252V18.2252ZM20.8466 17.0707C21.4389 16.4496 21.8933 15.5641 21.8889 14.4926L15.8889 14.5172C15.8876 14.1966 15.9527 13.8747 16.0807 13.5775C16.2056 13.2874 16.3672 13.0739 16.5045 12.9299L20.8466 17.0707ZM21.8889 14.5049V1.89143H15.8889V14.5049H21.8889ZM21.8889 1.89143C21.8889 0.828442 21.4382 -0.0475883 20.8573 -0.663105L16.4938 3.45516C16.3603 3.31371 16.2027 3.10408 16.0802 2.81943C15.9545 2.5277 15.8889 2.21018 15.8889 1.89143H21.8889ZM20.8573 -0.663105C20.2747 -1.28034 19.3652 -1.83416 18.1919 -1.8288L18.2192 4.17113C17.8451 4.17284 17.4804 4.0879 17.1566 3.93302C16.8445 3.78369 16.6283 3.59762 16.4938 3.45516L20.8573 -0.663105ZM18.2056 -1.82883H1.79444V4.17117H18.2056V-1.82883ZM1.79444 -1.82883C0.631221 -1.82883 -0.268724 -1.28033 -0.846578 -0.674395L3.49547 3.46645C3.36307 3.60528 3.15036 3.78699 2.84391 3.9336C2.52612 4.08565 2.16626 4.17117 1.79444 4.17117V-1.82883ZM-0.846578 -0.674395C-1.4389 -0.0532916 -1.89326 0.832238 -1.88886 1.90375L4.11109 1.87911C4.1124 2.19977 4.04727 2.52162 3.91927 2.81885C3.79436 3.10892 3.63284 3.3224 3.49547 3.46645L-0.846578 -0.674395ZM-1.88889 1.89143V17.1517H4.11111V1.89143H-1.88889ZM3.28437 19.2198L5.1177 17.2932L0.771189 13.1571L-1.06214 15.0836L3.28437 19.2198ZM2.94444 18.2252H10.575V12.2252H2.94444V18.2252ZM10.575 18.2252H18.2056V12.2252H10.575V18.2252Z" fill="white" mask="url(#path-1-inside-1_1_14)"/>
</svg>
